<?xml version="1.0" encoding="utf-8"?>
<!-- Generator: Adobe Illustrator 26.3.1, SVG Export Plug-In . SVG Version: 6.00 Build 0)  -->
<svg version="1.1" id="Layer_1" xmlns="http://www.w3.org/2000/svg" x="0px"
     y="0px"
     viewBox="0 0 800 800" style="enable-background:new 0 0 800 800;" xml:space="preserve">
<style type="text/css">
	.st0{fill:#FECE00;}
	.st1{fill:#343434;}
	.st2{fill:#FFFFFF;}
	.st3{fill:#D5424D;}
</style>
    <g id="_x23_fece00ff">
	<path class="st0" d="M376.4,67.5c42.2-2.9,84.9,2,125.2,14.9c57.4,18.2,109.5,52.6,149.1,97.9c42.9,48.7,71,110.2,79.6,174.5
		c9.8,70.9-4,145-39.1,207.4c-29.8,53.6-74.8,98.6-128.2,128.5c-62.8,35.5-137.5,49.4-209,39.3c-64-8.7-125.1-36.8-173.6-79.4
		c-49.6-43.3-85.9-101.6-102.6-165.3c-19-71.6-13.4-149.5,16.2-217.5c23.2-53.8,60.9-101.1,108-135.9
		C252.4,94.4,313.7,71.8,376.4,67.5 M263.4,317.5c-25.3,3.5-48.8,19.3-61.1,41.8c-4.2,7.8-0.6,18.3,7.3,22.1c7.7,4.2,18,1,22.2-6.6
		c8.6-14.8,25.1-24.5,42.2-24.8c17.6-0.5,34.9,9.1,43.9,24.2c2.9,5.1,8.2,9,14.2,9.1c11.5,1,21-12,16.3-22.6
		C332.9,330.3,297,312.3,263.4,317.5 M513.4,317.5c-25.4,3.5-48.8,19.3-61.1,41.8c-4.2,7.8-0.6,18.3,7.3,22.1c7.6,4.2,18,1,22.2-6.6
		c8.2-14.2,23.7-23.8,40.1-24.7c17.9-1.3,36.2,8.1,45.5,23.5c2.9,5.3,8.3,9.6,14.6,9.7c11.5,1,21-12,16.3-22.6
		C582.9,330.3,547,312.3,513.4,317.5 M266.7,516c-0.6,41.5,19.8,82.7,53.3,107.2c45.2,35.7,114.8,35.9,160,0
		c33.5-24.3,53.9-65.7,53.3-107.1c-0.1-8.2-7.1-15.5-15.2-15.9c-6-0.2-12.1-0.3-18.1,0.1c-66.7-0.2-133.4-0.2-200,0
		c-5.7-0.3-11.4-0.2-17.1-0.1C274.4,500,266.8,507.5,266.7,516z"/>
</g>
    <g id="_x23_343434ff">
	<path class="st1" d="M263.4,317.5c33.6-5.2,69.5,12.8,84.9,43.2c4.7,10.6-4.8,23.6-16.3,22.6c-6-0.1-11.3-4-14.2-9.1
		c-8.9-15.1-26.3-24.7-43.9-24.2c-17.1,0.3-33.6,10-42.2,24.8c-4.2,7.6-14.5,10.9-22.2,6.6c-7.9-3.8-11.5-14.4-7.3-22.1
		C214.6,336.8,238.1,321,263.4,317.5z"/>
        <path class="st1" d="M513.4,317.5c33.6-5.2,69.5,12.8,84.9,43.2c4.7,10.6-4.8,23.7-16.3,22.6c-6.3-0.1-11.6-4.4-14.6-9.7
		c-9.3-15.4-27.6-24.8-45.5-23.5c-16.4,0.9-31.9,10.5-40.1,24.7c-4.2,7.6-14.5,10.9-22.2,6.6c-7.9-3.8-11.5-14.4-7.3-22.1
		C464.6,336.8,488,321,513.4,317.5z"/>
        <path class="st1" d="M266.7,516c0.1-8.5,7.7-16,16.2-16c5.7,0,11.4-0.2,17.1,0.1c0.1,8.6-0.2,17.2,0.1,25.9c0,4.6,4.5,7.8,8.9,7.3
		c60.7,0,121.4,0,182.1,0c4.4,0.5,8.9-2.7,8.9-7.3c0.3-8.6,0-17.2,0.1-25.9c6-0.3,12-0.2,18.1-0.1c8.1,0.4,15.1,7.7,15.2,15.9
		c0.6,41.4-19.8,82.8-53.3,107.1c-15.8-20.2-39-34.9-64.5-38.6c-35.9-6.1-73.6,9.8-95.5,38.6C286.5,598.7,266.1,557.4,266.7,516z"/>
</g>
    <g id="_x23_ffffffff">
	<path class="st2" d="M300,500.1c66.7-0.2,133.4-0.2,200,0c-0.1,8.6,0.2,17.2-0.1,25.9c0,4.6-4.5,7.8-8.9,7.3
		c-60.7,0-121.4,0-182.1,0c-4.4,0.4-8.9-2.7-8.9-7.3C299.8,517.4,300.1,508.8,300,500.1z"/>
</g>
    <g id="_x23_d5424dff">
	<path class="st3"
          d="M320,623.2c21.8-28.8,59.6-44.7,95.5-38.6c25.5,3.7,48.8,18.3,64.5,38.6C434.8,659,365.2,658.9,320,623.2z"/>
</g>
</svg>
