<?xml version="1.0" encoding="UTF-8" ?>
<!DOCTYPE svg PUBLIC "-//W3C//DTD SVG 1.1//EN" "http://www.w3.org/Graphics/SVG/1.1/DTD/svg11.dtd">
<svg width="800pt" height="800pt" viewBox="0 0 800 800" version="1.1" xmlns="http://www.w3.org/2000/svg">
    <g id="#000000ff">
        <path fill="#000000" opacity="1.00"
              d=" M 287.16 96.14 C 322.36 76.59 362.71 66.49 402.97 67.06 C 449.99 67.51 496.69 82.74 534.96 110.04 C 563.51 130.29 587.44 157.00 604.38 187.64 C 623.86 222.70 633.89 262.91 633.30 303.01 C 632.76 358.42 611.42 413.23 574.59 454.59 C 566.65 464.00 556.84 471.66 549.40 481.50 C 538.04 496.19 530.47 513.61 526.44 531.68 C 523.83 543.34 521.26 555.01 518.66 566.67 C 439.55 566.67 360.45 566.67 281.34 566.66 C 276.19 545.89 273.64 524.22 264.52 504.65 C 258.59 491.69 250.40 479.71 240.12 469.80 C 214.39 445.52 194.21 415.39 181.74 382.29 C 167.25 344.19 163.11 302.27 169.76 262.07 C 175.53 226.71 189.73 192.79 210.77 163.80 C 230.87 136.02 257.14 112.73 287.16 96.14 Z"/>
        <path fill="#000000" opacity="1.00"
              d=" M 292.46 616.67 C 364.15 616.66 435.85 616.66 507.54 616.67 C 502.29 640.37 497.02 664.06 491.76 687.75 C 488.83 700.96 481.12 713.04 470.37 721.26 C 460.33 729.01 447.71 733.31 435.04 733.33 C 411.68 733.34 388.32 733.34 364.96 733.33 C 351.82 733.32 338.75 728.67 328.55 720.39 C 318.36 712.22 311.07 700.53 308.25 687.78 C 302.98 664.08 297.71 640.38 292.46 616.67 Z"/>
    </g>
</svg>
