<?xml version="1.0" encoding="UTF-8" ?>
<!DOCTYPE svg PUBLIC "-//W3C//DTD SVG 1.1//EN" "http://www.w3.org/Graphics/SVG/1.1/DTD/svg11.dtd">
<svg width="800pt" height="800pt" viewBox="0 0 800 800" version="1.1" xmlns="http://www.w3.org/2000/svg">
    <g id="#ecbe1cff">
        <path fill="#ecbe1c" opacity="1.00"
              d=" M 396.54 0.00 L 403.46 0.00 C 417.75 1.57 430.35 12.90 432.79 27.17 C 435.69 41.36 428.06 56.74 415.07 63.09 C 401.89 70.08 384.37 66.59 374.79 55.18 C 365.62 44.91 364.03 28.83 370.93 16.94 C 376.08 7.55 386.00 1.35 396.54 0.00 Z"/>
        <path fill="#ecbe1c" opacity="1.00"
              d=" M 168.38 93.60 C 185.11 89.24 203.74 100.18 208.15 116.86 C 213.53 133.94 202.47 153.76 185.15 158.18 C 168.04 163.53 148.31 152.33 143.94 135.01 C 138.52 117.48 150.51 97.41 168.38 93.60 Z"/>
        <path fill="#ecbe1c" opacity="1.00"
              d=" M 617.31 93.38 C 634.91 89.31 653.85 102.23 656.73 119.99 C 660.23 136.80 648.56 154.76 631.85 158.51 C 614.49 163.19 595.08 151.24 591.43 133.67 C 586.78 116.02 599.41 96.55 617.31 93.38 Z"/>
        <path fill="#ecbe1c" opacity="1.00"
              d=" M 361.94 153.64 C 426.23 140.59 496.11 162.13 541.93 209.07 C 577.20 244.29 598.37 293.14 599.90 342.97 C 601.22 378.05 592.75 412.90 578.97 444.99 C 564.61 479.08 544.63 510.32 526.25 542.30 C 516.50 559.67 506.73 577.42 502.00 596.92 C 499.00 608.82 500.32 621.16 499.97 633.29 C 433.33 633.51 366.66 633.56 300.03 633.30 C 299.69 621.66 300.92 609.86 298.32 598.40 C 294.90 582.87 287.89 568.43 280.49 554.45 C 266.17 528.00 249.72 502.76 235.85 476.06 C 220.62 447.12 208.02 416.39 202.78 383.96 C 196.02 343.87 201.50 301.73 218.92 264.94 C 245.35 207.95 300.09 165.06 361.94 153.64 Z"/>
        <path fill="#ecbe1c" opacity="1.00"
              d=" M 76.31 317.38 C 93.69 313.16 112.65 325.50 115.96 343.02 C 120.20 360.47 107.64 379.52 90.02 382.69 C 72.58 386.72 53.74 374.17 50.61 356.60 C 46.66 339.34 58.97 320.69 76.31 317.38 Z"/>
        <path fill="#ecbe1c" opacity="1.00"
              d=" M 708.41 317.67 C 725.11 312.99 743.99 323.70 748.61 340.38 C 754.26 357.42 743.32 377.44 726.01 382.01 C 708.74 387.59 688.69 376.18 684.44 358.61 C 679.31 341.36 690.93 321.71 708.41 317.67 Z"/>
        <path fill="#ecbe1c" opacity="1.00"
              d=" M 168.35 541.46 C 185.39 536.96 204.40 548.45 208.37 565.60 C 213.34 582.84 201.64 602.31 184.21 606.26 C 166.79 611.17 147.23 599.08 143.58 581.43 C 139.14 564.22 151.02 545.17 168.35 541.46 Z"/>
        <path fill="#ecbe1c" opacity="1.00"
              d=" M 616.34 541.44 C 633.14 537.07 651.78 548.22 656.04 564.99 C 661.17 581.72 650.56 600.93 633.83 605.77 C 616.72 611.58 596.57 600.66 591.88 583.28 C 586.23 565.63 598.22 545.16 616.34 541.44 Z"/>
    </g>
    <g id="#5d6368ff">
        <path fill="#5d6368" opacity="1.00"
              d=" M 300.05 633.73 C 366.66 633.46 433.31 633.44 499.91 633.77 C 500.00 648.18 500.02 662.61 499.87 677.03 C 498.98 711.08 479.03 743.72 449.31 760.29 C 419.89 777.34 381.67 777.60 351.99 761.01 C 321.57 744.67 300.96 711.59 300.08 677.02 C 299.93 662.59 299.96 648.16 300.05 633.73 Z"/>
    </g>
</svg>
