<?xml version="1.0" encoding="UTF-8" ?>
<!DOCTYPE svg PUBLIC "-//W3C//DTD SVG 1.1//EN" "http://www.w3.org/Graphics/SVG/1.1/DTD/svg11.dtd">
<svg width="800pt" height="800pt" viewBox="0 0 800 800" version="1.1" xmlns="http://www.w3.org/2000/svg">
    <g id="#f8c33eff">
        <path fill="#f8c33e" opacity="1.00"
              d=" M 449.62 0.00 L 455.46 0.00 C 480.17 2.18 503.00 18.76 511.95 42.01 C 517.90 56.23 517.41 72.10 515.05 87.05 C 510.17 117.58 493.24 145.89 468.96 164.97 C 466.84 166.47 465.96 168.96 465.41 171.40 C 460.46 192.13 454.98 212.74 450.06 233.49 C 533.37 233.28 616.68 233.47 699.99 233.40 C 717.97 233.21 735.79 240.84 748.11 253.91 C 763.06 269.32 769.83 292.22 765.30 313.25 C 742.14 421.42 718.93 529.57 695.77 637.73 C 693.92 647.12 691.87 656.64 687.13 665.06 C 675.98 686.08 652.84 700.12 629.01 699.94 C 491.60 699.95 354.19 700.02 216.78 699.93 C 216.50 544.37 216.64 388.80 216.74 233.24 C 294.27 155.40 372.32 78.07 449.62 0.00 Z"/>
    </g>
    <g id="#036fc6ff">
        <path fill="#036fc6" opacity="1.00"
              d=" M 70.03 236.08 C 77.84 232.43 86.64 233.40 95.00 233.32 C 135.58 233.27 176.16 233.44 216.74 233.24 C 216.64 388.80 216.50 544.37 216.78 699.93 C 172.17 699.85 127.55 699.95 82.94 699.89 C 69.38 700.00 56.55 690.73 52.03 678.03 C 49.40 670.99 50.17 663.35 50.08 656.00 C 50.06 526.32 49.99 396.64 49.99 266.96 C 49.73 253.86 57.96 241.16 70.03 236.08 Z"/>
    </g>
</svg>
