<?xml version="1.0" encoding="utf-8"?>
<!-- Generator: Adobe Illustrator 26.3.1, SVG Export Plug-In . SVG Version: 6.00 Build 0)  -->
<svg version="1.1" id="Layer_1" xmlns="http://www.w3.org/2000/svg" x="0px"
     y="0px"
     viewBox="0 0 800 800" style="enable-background:new 0 0 800 800;" xml:space="preserve">
<style type="text/css">
	.st0{fill:#000000;}
</style>
    <g id="_x23_000000ff">
	<path class="st0" d="M213.4,108.5c38.8-18.8,82.5-27.2,125.5-24.8c57.1,2.9,112.8,25.9,155.6,63.6c26,22.7,47.4,50.6,62.6,81.6
		c18.2,37.1,27.2,78.7,26.1,120c-0.9,38.3-10.5,76.3-28.1,110.3c-26.9,52.7-72.4,95.6-126.6,119.2C390.9,595,349,602.3,308,599
		c-33.8-2.7-66.8-12.4-97.1-27.5c-37.8,9.2-75.5,18.6-113.3,27.8c-7.3,1.8-15.3,0.1-21.2-4.5c-5.8-4.4-9.4-11.5-9.7-18.8
		c-0.2-4.5,1.2-8.8,2.2-13c8.8-35.7,17.6-71.4,26.4-107.1C79.6,424.5,69.6,390.1,67.4,355c-3.1-45.9,7.1-92.4,28.5-133.1
		C121.6,172.9,163.4,132.4,213.4,108.5 M218.4,267.5c-7.3,2-13.6,7.5-16.5,14.5c-3.3,7.8-2.2,17.4,2.8,24.2
		c4.8,6.7,13,10.7,21.2,10.4c72,0,144.1,0,216.1,0c13.1,0.1,24.8-11.6,24.6-24.7c0.5-13.3-11.3-25.5-24.7-25.3
		c-70.7,0-141.3,0-212,0C226.1,266.6,222.2,266.5,218.4,267.5 M222.4,383.5c-7.7,0.8-14.9,5.4-18.8,12.1c-4,6.6-4.6,15.2-1.6,22.3
		c2.8,6.8,8.8,12.2,15.8,14.3c4.3,1.4,8.8,1.1,13.3,1.1c48,0,96,0,144,0c11.4,0.2,22-8.3,24.4-19.4c2.3-9.5-1.6-20-9.5-25.7
		c-4.8-3.6-10.9-5.1-16.8-4.9C322.8,383.4,272.6,383.1,222.4,383.5z"/>
        <path class="st0" d="M616.5,241.9c54.1,35.3,94.2,91.4,109.4,154.2c10.2,41.8,10.1,86.2-1,127.8c-4.7,17.7-11.3,34.8-19.6,51.1
		c9,36.7,18.1,73.4,27.2,110.1c2.3,8.6-0.4,18.4-6.9,24.6c-6.1,6-15.4,8.3-23.6,6.3c-36.8-9.1-73.5-18.2-110.3-27.3
		c-38.3,19.7-81.7,29.3-124.7,27.9c-61.3-1.5-121.6-26-166.6-67.7c73,6.3,148.1-14.8,207.1-58.4c50.2-36.7,88.9-89,109.1-147.9
		C638.8,378.1,638.7,306.3,616.5,241.9z"/>
</g>
</svg>
