<?xml version="1.0" encoding="UTF-8" ?>
<!DOCTYPE svg PUBLIC "-//W3C//DTD SVG 1.1//EN" "http://www.w3.org/Graphics/SVG/1.1/DTD/svg11.dtd">
<svg width="800pt" height="800pt" viewBox="0 0 800 800" version="1.1" xmlns="http://www.w3.org/2000/svg">
    <g id="#000000ff">
        <path fill="#000000" opacity="1.00"
              d=" M 309.37 79.17 C 374.96 60.57 446.29 62.71 510.57 85.49 C 571.11 106.74 625.08 146.03 664.15 196.89 C 704.27 248.72 728.51 312.65 732.60 378.09 C 735.53 422.56 729.50 467.62 714.76 509.69 C 694.12 568.98 656.20 622.05 607.02 661.03 C 551.41 705.47 481.21 731.26 410.02 733.13 C 354.26 735.11 298.56 721.06 249.06 695.68 C 207.04 707.41 165.02 719.12 123.00 730.86 C 117.18 732.65 111.05 733.76 104.95 733.01 C 86.00 731.02 69.60 714.98 67.14 696.09 C 66.36 690.58 66.91 684.95 68.45 679.63 C 80.43 636.78 92.38 593.94 104.36 551.09 C 92.92 528.62 83.64 505.02 77.23 480.62 C 58.35 410.03 65.23 333.27 94.57 266.50 C 119.16 210.25 159.70 161.15 210.12 126.16 C 240.30 105.14 273.98 89.18 309.37 79.17 M 323.83 240.83 C 290.47 274.19 257.09 307.54 223.76 340.93 C 214.49 349.98 214.37 366.30 223.52 375.48 C 257.15 409.20 290.83 442.88 324.55 476.51 C 333.75 485.63 350.07 485.50 359.11 476.21 C 368.77 467.24 369.14 450.57 359.85 441.21 C 340.63 421.86 321.29 402.64 302.02 383.33 C 331.69 383.34 361.35 383.32 391.01 383.34 C 406.46 383.27 421.94 386.47 436.03 392.85 C 465.85 406.12 488.92 433.55 496.72 465.27 C 502.13 485.80 499.07 507.18 500.22 528.10 C 501.23 537.27 507.87 545.48 516.57 548.51 C 524.73 551.53 534.42 549.82 541.04 544.15 C 546.94 539.29 550.25 531.64 550.00 524.02 C 549.66 502.51 551.41 480.70 546.71 459.51 C 539.56 424.52 519.98 392.31 492.42 369.63 C 465.02 346.82 429.72 333.74 394.06 333.36 C 363.38 333.30 332.70 333.35 302.02 333.33 C 321.08 314.27 340.15 295.23 359.19 276.15 C 365.23 270.26 367.96 261.22 366.07 252.98 C 364.14 243.65 356.37 235.84 347.02 233.93 C 338.77 232.03 329.72 234.77 323.83 240.83 Z"/>
    </g>
</svg>
