<?xml version="1.0" encoding="UTF-8" ?>
<!DOCTYPE svg PUBLIC "-//W3C//DTD SVG 1.1//EN" "http://www.w3.org/Graphics/SVG/1.1/DTD/svg11.dtd">
<svg width="96pt" height="96pt" viewBox="0 0 96 96" version="1.1" xmlns="http://www.w3.org/2000/svg">
    <g id="#000000ff">
        <path fill="#000000" opacity="1.00"
              d=" M 42.50 8.77 C 49.09 6.84 56.60 8.62 61.59 13.34 C 66.44 17.76 68.82 24.67 67.73 31.14 C 66.70 38.18 61.55 44.38 54.87 46.77 C 47.97 49.37 39.72 47.72 34.39 42.63 C 29.57 38.23 27.19 31.37 28.24 24.92 C 29.33 17.37 35.15 10.79 42.50 8.77 Z"/>
        <path fill="#000000" opacity="1.00"
              d=" M 21.34 56.46 C 23.19 55.91 25.14 56.02 27.05 55.97 C 42.06 56.07 57.08 55.91 72.09 56.05 C 75.64 55.98 79.00 58.62 79.74 62.10 C 80.63 67.59 79.74 73.73 75.88 77.99 C 70.83 83.71 63.18 86.26 55.85 87.41 C 45.61 88.80 34.59 87.79 25.54 82.48 C 19.78 79.16 15.63 72.88 15.97 66.09 C 15.50 62.16 17.32 57.71 21.34 56.46 Z"/>
    </g>
</svg>
