<?xml version="1.0" encoding="UTF-8" ?>
<!DOCTYPE svg PUBLIC "-//W3C//DTD SVG 1.1//EN" "http://www.w3.org/Graphics/SVG/1.1/DTD/svg11.dtd">
<svg width="800pt" height="800pt" viewBox="0 0 800 800" version="1.1" xmlns="http://www.w3.org/2000/svg">
<g id="#000000ff">
<path fill="#000000" opacity="1.00" d=" M 517.45 67.56 C 553.96 66.13 590.85 75.23 622.35 93.77 C 653.24 111.86 678.88 138.81 695.36 170.60 C 711.85 202.23 719.17 238.51 716.48 274.07 C 713.89 309.59 701.27 344.35 680.21 373.10 C 672.46 383.91 663.24 393.55 653.75 402.83 C 556.27 500.32 458.78 597.80 361.30 695.29 C 349.93 706.78 336.40 716.12 321.57 722.54 C 288.50 737.01 249.33 736.56 216.60 721.37 C 186.21 707.50 161.88 681.03 150.64 649.57 C 137.10 612.57 141.73 569.36 163.31 536.32 C 170.22 525.22 179.50 515.95 188.79 506.86 C 265.80 429.84 342.82 352.83 419.83 275.82 C 426.82 268.82 437.05 265.25 446.88 266.39 C 459.61 267.63 471.05 276.90 474.90 289.09 C 478.87 300.71 475.64 314.33 466.94 322.96 C 389.47 400.47 311.96 477.95 234.48 555.44 C 229.17 560.83 223.45 565.92 219.34 572.34 C 210.28 585.83 207.05 603.07 210.70 618.92 C 214.27 635.12 224.89 649.48 239.04 658.06 C 250.85 665.29 265.22 668.28 278.93 666.26 C 292.04 664.44 304.35 658.04 313.64 648.66 C 408.49 553.83 503.32 458.99 598.16 364.16 C 609.58 352.55 621.97 341.60 630.66 327.66 C 652.03 295.14 656.69 252.47 642.95 216.07 C 631.63 185.41 607.88 159.63 578.33 145.68 C 557.47 135.76 533.82 131.86 510.87 134.45 C 483.11 137.47 456.60 150.19 436.77 169.83 C 332.76 273.81 228.77 377.82 124.78 481.81 C 120.18 486.65 114.22 490.21 107.69 491.66 C 96.17 494.41 83.39 490.36 75.54 481.51 C 63.94 469.24 64.19 448.16 76.13 436.21 C 177.11 335.17 278.15 234.18 379.15 133.16 C 386.16 126.21 392.97 119.03 400.56 112.70 C 433.00 85.10 474.91 69.05 517.45 67.56 Z" />
</g>
</svg>
