<?xml version="1.0" encoding="UTF-8" ?>
<!DOCTYPE svg PUBLIC "-//W3C//DTD SVG 1.1//EN" "http://www.w3.org/Graphics/SVG/1.1/DTD/svg11.dtd">
<svg width="800pt" height="800pt" viewBox="0 0 800 800" version="1.1" xmlns="http://www.w3.org/2000/svg">
<g id="#002642ff">
<path fill="#002642" opacity="1.00" d=" M 382.08 67.16 C 433.49 64.36 485.54 73.59 532.72 94.24 C 589.97 119.10 639.86 160.45 675.08 211.95 C 695.31 241.44 710.78 274.21 720.58 308.61 C 741.45 381.32 736.55 461.14 706.64 530.64 C 682.26 587.83 641.47 637.84 590.49 673.39 C 562.35 693.06 531.16 708.38 498.36 718.51 C 457.32 731.22 413.80 735.81 371.01 732.04 C 329.59 728.37 288.88 716.92 251.66 698.38 C 249.71 697.54 247.76 695.76 245.53 696.65 C 206.70 707.54 167.84 718.35 129.00 729.20 C 123.06 730.78 117.19 732.91 110.99 733.24 C 98.75 734.08 86.28 729.13 77.94 720.13 C 69.93 711.64 65.78 699.67 66.86 688.04 C 67.20 683.47 68.61 679.09 69.83 674.71 C 81.03 634.64 92.20 594.57 103.42 554.51 C 103.90 553.31 103.58 552.07 102.97 551.00 C 80.70 507.46 68.35 458.93 66.82 410.06 C 65.56 368.10 72.22 325.88 86.60 286.43 C 108.07 227.10 146.91 174.28 196.92 135.85 C 249.80 94.91 315.28 70.54 382.08 67.16 M 251.50 317.61 C 239.88 320.70 231.71 332.99 233.57 344.91 C 234.90 357.23 246.55 367.14 258.91 366.65 C 352.94 366.68 446.97 366.67 541.00 366.66 C 550.21 366.93 559.29 361.74 563.61 353.59 C 568.18 345.40 567.52 334.64 561.96 327.08 C 557.44 320.70 549.80 316.68 541.97 316.68 C 447.66 316.64 353.35 316.69 259.04 316.66 C 256.50 316.69 253.94 316.89 251.50 317.61 M 255.36 433.51 C 248.88 434.24 242.78 437.68 238.75 442.80 C 232.36 450.62 231.57 462.42 236.83 471.04 C 241.30 478.73 250.08 483.59 258.98 483.30 C 331.31 483.26 403.65 483.36 475.98 483.26 C 489.10 483.13 500.49 471.08 499.97 457.99 C 499.99 447.98 493.31 438.44 483.94 434.97 C 478.90 432.93 473.39 433.31 468.08 433.30 C 412.71 433.31 357.35 433.30 301.98 433.30 C 286.44 433.44 270.88 433.02 255.36 433.51 Z" />
</g>
</svg>
