<?xml version="1.0" encoding="UTF-8" ?>
<!DOCTYPE svg PUBLIC "-//W3C//DTD SVG 1.1//EN" "http://www.w3.org/Graphics/SVG/1.1/DTD/svg11.dtd">
<svg width="800pt" height="800pt" viewBox="0 0 800 800" version="1.1" xmlns="http://www.w3.org/2000/svg">
<g id="#000000ff">
<path fill="#000000" opacity="1.00" d=" M 150.24 94.29 C 164.13 77.12 185.89 66.62 208.01 66.68 C 272.00 66.65 336.00 66.67 399.99 66.67 C 400.02 130.78 399.97 194.89 400.02 258.99 C 400.09 276.44 406.60 293.74 417.97 306.96 C 431.74 323.25 452.71 333.18 474.06 333.31 C 538.26 333.37 602.46 333.31 666.66 333.34 C 666.67 441.57 666.67 549.80 666.66 658.04 C 666.77 675.26 660.69 692.43 649.73 705.72 C 635.45 723.45 612.79 733.93 590.03 733.34 C 463.01 733.33 335.98 733.34 208.96 733.33 C 190.81 733.53 172.72 726.81 159.09 714.83 C 142.83 700.80 133.13 679.55 133.34 658.06 C 133.33 486.03 133.33 314.01 133.34 141.98 C 133.21 124.76 139.30 107.59 150.24 94.29 M 286.27 417.26 C 278.06 419.04 270.98 425.22 268.18 433.14 C 265.32 440.84 266.62 449.92 271.56 456.48 C 276.21 462.88 284.03 466.77 291.94 466.66 C 363.96 466.67 435.98 466.67 508.00 466.66 C 517.95 466.90 527.60 460.58 531.36 451.37 C 534.80 443.38 533.62 433.64 528.35 426.72 C 523.67 420.34 515.84 416.52 507.94 416.67 C 437.95 416.66 367.95 416.67 297.95 416.66 C 294.05 416.68 290.11 416.45 286.27 417.26 M 290.33 533.40 C 284.36 533.61 278.53 536.14 274.24 540.28 C 266.76 547.26 264.42 559.02 268.64 568.34 C 272.50 577.42 282.11 583.59 291.98 583.33 C 341.67 583.33 391.36 583.34 441.05 583.32 C 451.69 583.65 461.92 576.39 465.15 566.26 C 468.13 557.55 465.79 547.29 459.24 540.80 C 454.30 535.68 447.13 533.05 440.07 533.33 C 390.15 533.39 340.24 533.24 290.33 533.40 Z" />
<path fill="#000000" opacity="1.00" d=" M 450.01 81.33 C 517.34 148.65 584.69 215.97 652.00 283.33 C 595.67 283.34 539.35 283.33 483.03 283.33 C 476.93 283.30 470.50 283.88 464.83 281.14 C 455.89 277.27 449.79 267.79 450.01 258.04 C 450.00 199.13 449.99 140.23 450.01 81.33 Z" />
</g>
</svg>
