<?xml version="1.0" encoding="UTF-8" ?>
<!DOCTYPE svg PUBLIC "-//W3C//DTD SVG 1.1//EN" "http://www.w3.org/Graphics/SVG/1.1/DTD/svg11.dtd">
<svg width="800pt" height="800pt" viewBox="0 0 800 800" version="1.1" xmlns="http://www.w3.org/2000/svg">
<g id="#000000ff">
<path fill="#000000" opacity="1.00" d=" M 143.58 113.62 C 158.03 104.67 175.01 99.94 191.99 100.01 C 330.67 100.00 469.35 100.00 608.03 100.01 C 625.47 99.92 642.90 104.92 657.58 114.35 C 675.20 125.53 688.79 142.91 695.32 162.74 C 698.69 172.77 700.15 183.38 700.00 193.95 C 700.00 322.95 700.00 451.95 700.00 580.95 C 649.88 532.47 599.76 483.97 549.62 435.50 C 525.71 412.23 484.27 411.26 459.02 432.92 C 446.44 444.62 434.28 456.78 421.84 468.64 C 387.19 435.15 352.60 401.60 317.91 368.14 C 293.24 344.85 250.77 344.86 226.09 368.13 C 184.02 408.74 142.00 449.42 99.99 490.08 C 100.02 396.41 99.99 302.74 100.00 209.07 C 100.12 196.42 99.26 183.58 102.31 171.18 C 107.62 147.49 122.89 126.29 143.58 113.62 M 495.54 217.77 C 470.11 221.98 447.70 240.34 438.48 264.39 C 431.39 282.32 431.66 303.01 439.22 320.75 C 446.22 337.42 459.46 351.35 475.76 359.19 C 501.27 371.89 533.86 368.05 555.71 349.75 C 568.87 339.04 578.26 323.76 581.71 307.13 C 585.07 291.29 583.13 274.37 576.18 259.75 C 568.83 244.10 555.90 231.16 540.25 223.81 C 526.45 217.25 510.60 215.16 495.54 217.77 Z" />
<path fill="#000000" opacity="1.00" d=" M 503.17 267.21 C 516.36 264.06 530.69 273.64 532.88 286.99 C 535.54 299.39 527.13 312.78 514.83 315.80 C 505.91 318.28 495.79 315.27 489.70 308.30 C 483.61 301.64 481.69 291.56 484.85 283.11 C 487.69 275.13 494.87 268.91 503.17 267.21 Z" />
<path fill="#000000" opacity="1.00" d=" M 261.50 403.61 C 268.03 398.58 278.13 399.14 284.03 404.92 C 318.02 437.74 351.95 470.60 385.91 503.45 C 318.34 568.84 250.75 634.20 183.17 699.58 C 163.50 697.78 144.50 689.40 129.94 676.05 C 111.46 659.38 100.32 634.91 100.03 610.02 C 100.00 593.29 99.94 576.55 100.06 559.82 C 105.92 553.51 112.42 547.78 118.53 541.69 C 163.79 497.92 209.04 454.14 254.30 410.37 C 256.70 408.11 258.93 405.67 261.50 403.61 Z" />
<path fill="#000000" opacity="1.00" d=" M 490.70 471.68 C 497.17 465.21 508.75 465.25 515.20 471.74 C 574.44 529.00 633.61 586.35 692.89 643.58 C 685.54 661.45 672.26 676.77 655.75 686.77 C 641.45 695.49 624.71 700.07 607.98 700.00 C 490.19 700.01 372.40 699.99 254.61 700.00 C 333.32 623.91 411.99 547.78 490.70 471.68 Z" />
</g>
</svg>
