<?xml version="1.0" encoding="UTF-8" ?>
<!DOCTYPE svg PUBLIC "-//W3C//DTD SVG 1.1//EN" "http://www.w3.org/Graphics/SVG/1.1/DTD/svg11.dtd">
<svg width="800pt" height="800pt" viewBox="0 0 800 800" version="1.1" xmlns="http://www.w3.org/2000/svg">
    <g id="#04040414">
        <path fill="#040404" opacity="0.08"
              d=" M 0.00 0.00 L 800.00 0.00 L 800.00 800.00 L 0.00 800.00 L 0.00 0.00 M 376.40 67.53 C 313.68 71.78 252.36 94.42 201.91 131.93 C 154.81 166.71 117.08 214.08 93.92 267.86 C 64.35 335.82 58.75 413.76 77.73 485.35 C 94.43 549.06 130.78 607.35 180.36 650.67 C 228.82 693.32 289.95 721.43 353.95 730.10 C 425.40 740.18 500.06 726.36 562.91 690.81 C 616.41 660.86 661.33 615.83 691.16 562.27 C 726.30 499.82 740.00 425.80 730.25 354.86 C 721.69 290.53 693.54 229.05 650.68 180.35 C 611.05 135.05 558.98 100.70 501.59 82.46 C 461.32 69.52 418.57 64.59 376.40 67.53 Z"/>
    </g>
    <g id="#fece00ff">
        <path fill="#fece00" opacity="1.00"
              d=" M 376.40 67.53 C 418.57 64.59 461.32 69.52 501.59 82.46 C 558.98 100.70 611.05 135.05 650.68 180.35 C 693.54 229.05 721.69 290.53 730.25 354.86 C 740.00 425.80 726.30 499.82 691.16 562.27 C 661.33 615.83 616.41 660.86 562.91 690.81 C 500.06 726.36 425.40 740.18 353.95 730.10 C 289.95 721.43 228.82 693.32 180.36 650.67 C 130.78 607.35 94.43 549.06 77.73 485.35 C 58.75 413.76 64.35 335.82 93.92 267.86 C 117.08 214.08 154.81 166.71 201.91 131.93 C 252.36 94.42 313.68 71.78 376.40 67.53 M 263.40 317.49 C 238.06 321.00 214.63 336.83 202.33 359.31 C 198.16 367.07 201.74 377.60 209.62 381.43 C 217.27 385.65 227.60 382.39 231.77 374.80 C 240.35 360.00 256.86 350.28 273.96 350.01 C 291.52 349.51 308.89 359.10 317.82 374.21 C 320.71 379.29 325.99 383.17 331.98 383.28 C 343.48 384.31 352.96 371.27 348.25 360.66 C 332.87 330.30 296.97 312.32 263.40 317.49 M 513.39 317.48 C 488.04 320.99 464.61 336.82 452.32 359.31 C 448.15 367.08 451.74 377.61 459.62 381.44 C 467.27 385.66 477.60 382.40 481.78 374.81 C 490.03 360.65 505.52 351.02 521.90 350.12 C 539.85 348.84 558.07 358.21 567.40 373.61 C 570.34 378.94 575.70 383.17 581.97 383.30 C 593.49 384.32 602.98 371.27 598.27 360.65 C 582.88 330.28 546.96 312.31 513.39 317.48 M 266.71 515.99 C 266.11 557.44 286.49 598.71 320.00 623.16 C 365.25 658.90 434.84 659.03 480.00 623.12 C 513.55 598.78 533.88 557.41 533.30 515.99 C 533.22 507.83 526.20 500.52 518.07 500.09 C 512.05 499.89 506.01 499.80 500.00 500.14 C 433.34 499.92 366.65 499.90 299.99 500.14 C 294.31 499.81 288.60 499.99 282.91 500.03 C 274.43 500.01 266.79 507.48 266.71 515.99 Z"/>
    </g>
    <g id="#343434ff">
        <path fill="#343434" opacity="1.00"
              d=" M 263.40 317.49 C 296.97 312.32 332.87 330.30 348.25 360.66 C 352.96 371.27 343.48 384.31 331.98 383.28 C 325.99 383.17 320.71 379.29 317.82 374.21 C 308.89 359.10 291.52 349.51 273.96 350.01 C 256.86 350.28 240.35 360.00 231.77 374.80 C 227.60 382.39 217.27 385.65 209.62 381.43 C 201.74 377.60 198.16 367.07 202.33 359.31 C 214.63 336.83 238.06 321.00 263.40 317.49 Z"/>
        <path fill="#343434" opacity="1.00"
              d=" M 513.39 317.48 C 546.96 312.31 582.88 330.28 598.27 360.65 C 602.98 371.27 593.49 384.32 581.97 383.30 C 575.70 383.17 570.34 378.94 567.40 373.61 C 558.07 358.21 539.85 348.84 521.90 350.12 C 505.52 351.02 490.03 360.65 481.78 374.81 C 477.60 382.40 467.27 385.66 459.62 381.44 C 451.74 377.61 448.15 367.08 452.32 359.31 C 464.61 336.82 488.04 320.99 513.39 317.48 Z"/>
        <path fill="#343434" opacity="1.00"
              d=" M 266.71 515.99 C 266.79 507.48 274.43 500.01 282.91 500.03 C 288.60 499.99 294.31 499.81 299.99 500.14 C 300.13 508.76 299.78 517.39 300.10 526.00 C 300.08 530.61 304.60 533.79 308.96 533.34 C 369.65 533.33 430.35 533.34 491.05 533.34 C 495.41 533.80 499.92 530.61 499.90 526.00 C 500.21 517.39 499.89 508.76 500.00 500.14 C 506.01 499.80 512.05 499.89 518.07 500.09 C 526.20 500.52 533.22 507.83 533.30 515.99 C 533.88 557.41 513.55 598.78 480.00 623.12 C 464.23 602.88 441.00 588.26 415.46 584.54 C 379.61 578.44 341.83 594.32 320.00 623.16 C 286.49 598.71 266.11 557.44 266.71 515.99 Z"/>
    </g>
    <g id="#ffffffff">
        <path fill="#ffffff" opacity="1.00"
              d=" M 299.99 500.14 C 366.65 499.90 433.34 499.92 500.00 500.14 C 499.89 508.76 500.21 517.39 499.90 526.00 C 499.92 530.61 495.41 533.80 491.05 533.34 C 430.35 533.34 369.65 533.33 308.96 533.34 C 304.60 533.79 300.08 530.61 300.10 526.00 C 299.78 517.39 300.13 508.76 299.99 500.14 Z"/>
    </g>
    <g id="#d5424dff">
        <path fill="#d5424d" opacity="1.00"
              d=" M 320.00 623.16 C 341.83 594.32 379.61 578.44 415.46 584.54 C 441.00 588.26 464.23 602.88 480.00 623.12 C 434.84 659.03 365.25 658.90 320.00 623.16 Z"/>
    </g>
</svg>
