<?xml version="1.0" encoding="UTF-8" ?>
<!DOCTYPE svg PUBLIC "-//W3C//DTD SVG 1.1//EN" "http://www.w3.org/Graphics/SVG/1.1/DTD/svg11.dtd">
<svg width="800pt" height="800pt" viewBox="0 0 800 800" version="1.1" xmlns="http://www.w3.org/2000/svg">
<g id="#d81a49ff">
<path fill="#d81a49" opacity="1.00" d=" M 376.39 67.48 C 416.69 64.68 457.52 69.05 496.21 80.75 C 556.40 98.75 611.07 134.41 652.11 181.94 C 694.19 230.38 721.81 291.23 730.28 354.86 C 740.32 427.72 725.53 503.81 688.32 567.32 C 642.98 645.98 564.21 704.55 475.61 724.70 C 398.72 742.68 315.49 732.35 245.61 695.46 C 167.20 654.77 106.38 581.65 81.00 497.01 C 58.89 424.50 62.40 344.41 91.19 274.25 C 114.62 216.48 154.77 165.69 205.39 129.33 C 255.16 93.34 315.10 71.65 376.39 67.48 M 273.38 275.36 C 237.70 289.75 213.11 328.46 217.11 366.99 C 220.71 388.93 234.15 407.98 249.53 423.47 C 294.73 468.60 339.82 513.83 385.05 558.93 C 392.96 566.82 407.05 566.85 414.96 558.93 C 459.51 514.49 503.94 469.93 548.46 425.46 C 562.00 412.37 573.58 396.76 579.95 378.91 C 585.06 364.85 583.76 349.36 579.84 335.19 C 569.49 297.15 532.46 268.32 492.91 268.43 C 456.85 268.26 424.74 289.36 400.00 313.90 C 381.76 295.79 360.23 280.14 335.41 272.55 C 315.24 266.24 292.87 267.10 273.38 275.36 Z" />
</g>
<g id="#ffffffff">
<path fill="#ffffff" opacity="1.00" d=" M 273.38 275.36 C 292.87 267.10 315.24 266.24 335.41 272.55 C 360.23 280.14 381.76 295.79 400.00 313.90 C 424.74 289.36 456.85 268.26 492.91 268.43 C 532.46 268.32 569.49 297.15 579.84 335.19 C 583.76 349.36 585.06 364.85 579.95 378.91 C 573.58 396.76 562.00 412.37 548.46 425.46 C 503.94 469.93 459.51 514.49 414.96 558.93 C 407.05 566.85 392.96 566.82 385.05 558.93 C 339.82 513.83 294.73 468.60 249.53 423.47 C 234.15 407.98 220.71 388.93 217.11 366.99 C 213.11 328.46 237.70 289.75 273.38 275.36 Z" />
</g>
</svg>
