<?xml version="1.0" encoding="UTF-8" ?>
<!DOCTYPE svg PUBLIC "-//W3C//DTD SVG 1.1//EN" "http://www.w3.org/Graphics/SVG/1.1/DTD/svg11.dtd">
<svg width="800pt" height="800pt" viewBox="0 0 800 800" version="1.1" xmlns="http://www.w3.org/2000/svg">
<g id="#000000ff">
<path fill="#000000" opacity="1.00" d=" M 127.36 308.51 C 143.88 307.40 160.67 310.93 175.34 318.62 C 195.92 329.29 212.20 347.97 219.84 369.87 C 226.69 389.18 226.68 410.82 219.84 430.13 C 212.36 451.54 196.63 469.89 176.68 480.66 C 159.48 490.06 139.18 493.63 119.80 490.67 C 100.68 487.84 82.63 478.66 68.93 465.05 C 55.54 451.86 46.29 434.50 43.03 415.98 C 39.11 394.42 43.38 371.52 54.81 352.83 C 69.96 327.50 97.84 310.23 127.36 308.51 Z" />
<path fill="#000000" opacity="1.00" d=" M 394.34 308.52 C 410.61 307.49 427.13 310.94 441.60 318.44 C 458.86 327.30 473.17 341.75 481.88 359.08 C 489.79 374.69 493.02 392.61 491.06 410.00 C 489.10 428.17 481.41 445.62 469.51 459.46 C 457.86 473.08 442.20 483.25 424.95 488.15 C 407.10 493.29 387.67 492.75 370.14 486.60 C 353.25 480.75 338.20 469.80 327.32 455.63 C 315.31 440.13 308.48 420.68 308.33 401.06 C 308.02 381.40 314.42 361.76 326.10 345.97 C 341.89 324.28 367.51 310.03 394.34 308.52 Z" />
<path fill="#000000" opacity="1.00" d=" M 661.31 308.47 C 676.80 307.54 692.51 310.67 706.45 317.50 C 724.83 326.42 740.07 341.63 749.03 359.99 C 757.37 376.89 760.22 396.42 757.07 415.00 C 752.26 444.95 731.42 471.58 703.70 483.78 C 682.71 493.27 658.08 494.24 636.39 486.50 C 608.07 476.65 585.39 452.14 577.93 423.08 C 572.14 401.32 574.87 377.44 585.46 357.57 C 600.00 329.56 629.71 310.06 661.31 308.47 Z" />
</g>
</svg>
