<?xml version="1.0" encoding="UTF-8" ?>
<!DOCTYPE svg PUBLIC "-//W3C//DTD SVG 1.1//EN" "http://www.w3.org/Graphics/SVG/1.1/DTD/svg11.dtd">
<svg width="800pt" height="800pt" viewBox="0 0 800 800" version="1.1" xmlns="http://www.w3.org/2000/svg">
<g id="#ee3e4bff">
<path fill="#ee3e4b" opacity="1.00" d=" M 516.43 66.91 C 588.90 138.57 661.47 211.04 733.00 283.58 C 693.77 309.48 654.67 335.55 615.44 361.46 C 604.92 368.37 590.74 368.14 580.03 361.77 C 537.07 321.64 496.57 278.66 454.56 237.44 C 449.09 231.53 442.56 226.50 438.17 219.69 C 431.03 208.22 432.01 192.69 440.17 182.00 C 465.60 143.64 491.08 105.33 516.43 66.91 Z" />
</g>
<g id="#f7b400ff">
<path fill="#f7b400" opacity="1.00" d=" M 378.41 262.50 C 401.01 252.48 420.55 236.82 438.17 219.69 C 442.56 226.50 449.09 231.53 454.56 237.44 C 496.57 278.66 537.07 321.64 580.03 361.77 C 562.32 380.75 545.40 401.45 535.64 425.88 C 515.62 476.28 517.27 531.70 516.65 585.00 C 517.65 592.98 512.76 601.41 504.86 603.63 C 368.06 645.94 231.27 688.32 94.43 730.50 C 93.52 729.02 95.41 728.13 96.15 727.16 C 178.54 645.25 260.42 562.58 343.04 481.04 C 366.95 490.14 396.47 473.81 399.35 447.91 C 404.86 420.67 377.12 394.06 350.10 400.75 C 325.16 404.95 310.22 433.69 319.07 456.94 C 237.27 539.72 154.48 621.80 72.37 704.38 C 71.57 705.04 70.63 706.58 69.47 705.48 C 111.76 568.69 154.07 431.90 196.35 295.12 C 198.10 289.24 203.34 284.55 209.41 283.58 C 265.98 282.24 325.27 285.40 378.41 262.50 Z" />
</g>
<g id="#cd8d0cff">
<path fill="#cd8d0c" opacity="1.00" d=" M 350.10 400.75 C 377.12 394.06 404.86 420.67 399.35 447.91 C 396.47 473.81 366.95 490.14 343.04 481.04 C 260.42 562.58 178.54 645.25 96.15 727.16 C 95.41 728.13 93.52 729.02 94.43 730.50 L 94.58 730.62 C 78.26 741.29 58.59 721.80 69.47 705.48 C 70.63 706.58 71.57 705.04 72.37 704.38 C 154.48 621.80 237.27 539.72 319.07 456.94 C 310.22 433.69 325.16 404.95 350.10 400.75 Z" />
</g>
</svg>
