<?xml version="1.0" encoding="utf-8"?>
<!-- Generator: Adobe Illustrator 26.3.1, SVG Export Plug-In . SVG Version: 6.00 Build 0)  -->
<svg version="1.1" id="Layer_1" xmlns="http://www.w3.org/2000/svg" xmlns:xlink="http://www.w3.org/1999/xlink" x="0px" y="0px"
	 viewBox="0 0 1000 1000" style="enable-background:new 0 0 1000 1000;" xml:space="preserve">
<style type="text/css">
	.st0{fill:#000000;}
</style>
<g id="_x23_000000ff">
	<path class="st0" d="M290.1,111.1C322.2,90.6,361,80.9,399,83.9c40.8,2.9,80.4,20.8,109.7,49.4c18,17.9,35.8,35.9,53.9,53.8
		c19.3-19.2,38.3-38.7,57.9-57.7c26.3-24.1,60.2-39.8,95.6-44.5c34-4.6,69.3,0.9,100.3,15.9c30.4,14.5,56.4,38.1,74.1,66.8
		c19.7,31.9,28.8,70.1,25.6,107.5c-3.2,41.2-21.6,80.9-50.8,110.1C812.3,438.1,759.5,491,706.5,543.8c-2.4-11.1-5.9-21.9-11.5-31.8
		c-17.2-31.7-51.9-53.1-88-53.6c-34.7-0.2-69.3,0-104-0.1c-36.8,0.2-73.9-1.9-109.8-10.4c-26.5-6.3-53.6-10.1-80.9-10.1
		c-19.1-19.2-38.5-38.2-57.3-57.6c-22.8-24.7-38.2-56-43.9-89.1c-6.4-36.6-1.1-75.3,15.4-108.6C240.6,153.4,263,128.5,290.1,111.1z"
		/>
	<path class="st0" d="M859.4,475.4c30.7-2.6,61.5,16.8,72.7,45.4c10.9,26.8,3.3,59.1-16.8,79.5C851.5,665.2,787.6,730,723.8,794.7
		c-8.7,9-17.6,17.9-27.6,25.4c-29.7,22.4-66.9,34.6-104.1,34c-77.5-0.1-153.7-17.7-231-20.3c-14.2-0.4-28.9-1.3-42.4,3.8
		c-25.3,8.7-42.4,32.6-49.4,57.6c-5,16.8-25.5,26.2-41.6,19.1c-7.8-2.9-13.1-9.7-17.7-16.3c-45.8-62.2-91.6-124.3-137.5-186.5
		c-4.7-6-9.2-12.7-9.8-20.5c-1.2-9.1,2.9-17.5,7-25.3c27.8-53.2,64.4-102.9,112.1-139.9C220,495.9,268.1,477,317,479.4
		c33.8-0.2,66.2,9.9,99.2,15.2c23.7,3.7,47.8,4.9,71.7,5.4c39,0,78,0,117,0c21.7,0.1,42.8,12.6,53.4,31.6
		c11,18.9,10.9,43.7-0.4,62.4c-10.7,18.6-31.5,30.9-53,30.9c-55.7,0.1-111.4,0-167.1,0c-9.9-0.4-19.3,7.3-20.9,17.1
		c-1.8,9,3.1,18.6,11.4,22.5c5.8,2.9,12.4,2,18.6,2.1c52,0,104,0.1,156,0.1c26,0.2,51.8-10.2,70.2-28.5c46.7-47.3,93.3-94.7,140-142
		C825.5,484,842.2,476.5,859.4,475.4z"/>
</g>
</svg>
