<?xml version="1.0" encoding="utf-8"?>
<!-- Generator: Adobe Illustrator 26.3.1, SVG Export Plug-In . SVG Version: 6.00 Build 0)  -->
<svg version="1.1" id="Layer_1" xmlns="http://www.w3.org/2000/svg" xmlns:xlink="http://www.w3.org/1999/xlink" x="0px" y="0px"
	 viewBox="0 0 96 96" style="enable-background:new 0 0 96 96;" xml:space="preserve">
<style type="text/css">
	.st0{fill:#000000;}
</style>
<g id="_x23_000000ff">
	<path class="st0" d="M42.5,8.8c6.6-1.9,14.1-0.2,19.1,4.6c4.9,4.4,7.2,11.3,6.1,17.8c-1,7-6.2,13.2-12.9,15.6
		c-6.9,2.6-15.1,1-20.5-4.1c-4.8-4.4-7.2-11.3-6.1-17.7C29.3,17.4,35.2,10.8,42.5,8.8z"/>
	<path class="st0" d="M21.3,56.5c1.9-0.5,3.8-0.4,5.7-0.5c15,0.1,30-0.1,45,0.1c3.6-0.1,6.9,2.6,7.7,6c0.9,5.5,0,11.6-3.9,15.9
		c-5,5.7-12.7,8.3-20,9.4c-10.2,1.4-21.3,0.4-30.3-4.9c-5.8-3.3-9.9-9.6-9.6-16.4C15.5,62.2,17.3,57.7,21.3,56.5z"/>
</g>
</svg>
