<?xml version="1.0" encoding="UTF-8" ?>
<!DOCTYPE svg PUBLIC "-//W3C//DTD SVG 1.1//EN" "http://www.w3.org/Graphics/SVG/1.1/DTD/svg11.dtd">
<svg width="800pt" height="800pt" viewBox="0 0 800 800" version="1.1" xmlns="http://www.w3.org/2000/svg">
<g id="#35c1f1ff">
<path fill="#35c1f1" opacity="1.00" d=" M 150.06 106.96 C 150.31 90.29 169.69 78.21 184.78 85.33 C 369.02 183.04 553.34 280.65 737.57 378.39 C 753.88 386.96 753.87 413.04 737.57 421.61 C 553.34 519.35 369.02 616.97 184.77 714.67 C 169.69 721.78 150.31 709.70 150.06 693.04 C 149.93 628.70 150.03 564.36 150.01 500.01 C 314.66 467.06 479.31 434.12 643.98 401.23 C 645.27 401.04 646.46 400.51 647.39 399.57 C 481.63 366.20 315.80 333.19 150.00 300.01 C 150.04 235.66 149.92 171.31 150.06 106.96 Z" />
</g>
<g id="#1b9de2ff">
<path fill="#1b9de2" opacity="1.00" d=" M 57.34 382.32 C 88.20 354.86 119.12 327.45 150.00 300.01 C 315.80 333.19 481.63 366.20 647.39 399.57 C 646.46 400.51 645.27 401.04 643.98 401.23 C 479.31 434.12 314.66 467.06 150.01 500.01 C 119.14 472.54 88.20 445.15 57.34 417.68 C 47.65 408.47 47.64 391.52 57.34 382.32 Z" />
</g>
</svg>
