<?xml version="1.0" encoding="UTF-8" ?>
<!DOCTYPE svg PUBLIC "-//W3C//DTD SVG 1.1//EN" "http://www.w3.org/Graphics/SVG/1.1/DTD/svg11.dtd">
<svg width="1000pt" height="1000pt" viewBox="0 0 1000 1000" version="1.1" xmlns="http://www.w3.org/2000/svg">
    <g id="#000000ff">
        <path fill="#000000" opacity="1.00"
              d=" M 290.15 111.13 C 322.20 90.57 361.02 80.87 398.98 83.88 C 439.83 86.82 479.41 104.64 508.67 133.31 C 526.71 151.16 544.51 169.25 562.57 187.07 C 581.87 167.86 600.88 148.36 620.44 129.41 C 646.78 105.31 680.62 89.58 716.02 84.92 C 750.03 80.36 785.37 85.84 816.29 100.79 C 846.72 115.33 872.71 138.90 890.40 167.59 C 910.11 199.46 919.20 237.71 916.01 275.05 C 912.78 316.24 894.41 355.98 865.18 385.17 C 812.33 438.08 759.45 490.96 706.54 543.80 C 704.16 532.73 700.59 521.87 695.02 511.98 C 677.79 480.30 643.15 458.89 607.00 458.35 C 572.34 458.14 537.67 458.36 503.00 458.20 C 466.18 458.45 429.11 456.31 393.18 447.78 C 366.67 441.51 339.55 437.68 312.27 437.67 C 293.20 418.42 273.80 399.50 254.92 380.07 C 232.13 355.41 216.69 324.09 210.97 291.00 C 204.52 254.37 209.91 215.74 226.39 182.37 C 240.58 153.38 262.96 128.49 290.15 111.13 Z"/>
        <path fill="#000000" opacity="1.00"
              d=" M 859.41 475.44 C 890.12 472.85 920.91 492.22 932.09 520.88 C 942.99 547.64 935.40 579.94 915.32 600.34 C 851.50 665.17 787.63 729.96 723.75 794.74 C 715.08 803.75 706.19 812.66 696.12 820.12 C 666.45 842.56 629.19 854.70 592.00 854.09 C 514.48 853.95 438.33 836.43 360.97 833.77 C 346.79 833.42 332.12 832.50 318.58 837.57 C 293.25 846.24 276.14 870.14 269.22 895.18 C 264.24 911.99 243.69 921.38 227.67 914.32 C 219.84 911.42 214.56 904.65 209.98 898.01 C 164.16 835.84 118.34 773.68 72.49 711.54 C 67.78 705.54 63.30 698.84 62.71 691.01 C 61.46 681.93 65.62 673.48 69.73 665.71 C 97.48 612.48 134.09 562.77 181.82 525.80 C 220.02 495.91 268.07 477.03 317.04 479.41 C 350.80 479.16 383.23 489.33 416.26 494.63 C 439.99 498.29 464.02 499.54 488.00 499.99 C 527.01 500.02 566.03 499.97 605.05 500.02 C 626.79 500.10 647.86 512.65 658.45 531.61 C 669.49 550.50 669.34 575.28 658.07 594.04 C 647.37 612.65 626.54 624.89 605.05 624.98 C 549.34 625.03 493.63 624.98 437.92 625.00 C 428.00 624.63 418.61 632.27 417.01 642.06 C 415.23 651.01 420.12 660.70 428.39 664.55 C 434.16 667.45 440.78 666.55 447.01 666.67 C 499.01 666.72 551.01 666.74 603.02 666.79 C 628.99 667.03 654.82 656.55 673.26 638.26 C 719.95 590.95 766.54 543.54 813.24 496.24 C 825.47 484.05 842.19 476.54 859.41 475.44 Z"/>
    </g>
</svg>
