<?xml version="1.0" encoding="utf-8"?>
<!-- Generator: Adobe Illustrator 26.3.1, SVG Export Plug-In . SVG Version: 6.00 Build 0)  -->
<svg version="1.1" id="Layer_1" xmlns="http://www.w3.org/2000/svg" xmlns:xlink="http://www.w3.org/1999/xlink" x="0px" y="0px"
	 viewBox="0 0 25 26" style="enable-background:new 0 0 25 26;" xml:space="preserve">
<style type="text/css">
	.st0{fill:#FFFFFF;}
</style>
<path class="st0" d="M8,0c1-0.1,2,0.2,2.9,0.6c1.1,0.6,2,1.4,2.5,2.5C13.9,4.1,14.1,5,14.1,6c-0.1,1-0.4,2-0.9,2.8
	c-0.5,0.8-1.2,1.5-2.1,1.9c-0.9,0.5-2,0.8-3.1,0.7c-1.1-0.1-2.1-0.4-3-1c-1-0.7-1.7-1.7-2.1-2.8C2.5,6.5,2.5,5.3,2.8,4.2
	C3.1,3,3.8,2,4.8,1.3C5.7,0.5,6.8,0.1,8,0L8,0z"/>
<path class="st0" d="M18.1,12.7c1.5-0.1,3,0.2,4.2,1.1c1.2,0.9,2.1,2.1,2.5,3.6c0.4,1.4,0.3,3-0.4,4.3c-0.6,1.4-1.7,2.4-3.1,3.1
	C20,25.3,18.4,25.4,17,25c-1.4-0.4-2.7-1.3-3.5-2.5c-0.8-1.2-1.2-2.7-1.1-4.2c0.2-1.5,0.8-2.9,1.9-3.9
	C15.3,13.4,16.7,12.8,18.1,12.7z M18.1,14.9c0,1.2,0,2.3,0,3.5c-1.2,0-2.3,0-3.5,0c-0.2,0-0.3,0.1-0.4,0.2c-0.1,0.1-0.2,0.3-0.2,0.4
	c0,0.2,0.1,0.3,0.2,0.4c0.1,0.1,0.3,0.2,0.4,0.2h3.4c0,1.1,0,2.3,0,3.4c0,0.1,0,0.2,0.1,0.3c0.1,0.1,0.2,0.2,0.3,0.2
	c0.1,0,0.2,0,0.4,0c0.1,0,0.2-0.1,0.3-0.2c0.1-0.2,0.1-0.4,0.1-0.5v-3.2h3.4c0.2,0,0.3-0.1,0.4-0.2c0.1-0.1,0.2-0.3,0.2-0.4
	s-0.1-0.3-0.2-0.4c-0.1-0.1-0.3-0.2-0.4-0.2h-3.4c0-1.1,0-2.3,0-3.4c0-0.2-0.1-0.3-0.2-0.4c-0.1-0.1-0.2-0.2-0.4-0.2
	c-0.2,0-0.3,0.1-0.4,0.2C18.2,14.6,18.1,14.8,18.1,14.9L18.1,14.9z"/>
<path class="st0" d="M1.4,13.9c0.3-0.1,0.5-0.2,0.8-0.2h11.1c-1.1,1.1-1.8,2.6-2,4.1s0,3.1,0.8,4.5c-1.5,0.5-3.2,0.7-4.8,0.5
	c-1.4-0.1-2.8-0.5-4.1-1.1c-1-0.5-1.9-1.3-2.5-2.2C0.2,18.7,0,17.8,0,16.8c0-0.5,0-0.9,0.1-1.4c0.1-0.3,0.2-0.7,0.5-0.9
	C0.8,14.3,1,14.1,1.4,13.9z"/>
</svg>
